<svg width="680" height="861" viewBox="0 0 680 861" fill="none" xmlns="http://www.w3.org/2000/svg">
<rect width="680" height="861" fill="url(#paint0_linear_1_2)"/>
<path d="M131.096 99.304V122.248C131.096 125.8 130.088 128.536 128.072 130.456C126.088 132.376 123.4 133.336 120.008 133.336C116.456 133.336 113.608 132.328 111.464 130.312C109.32 128.296 108.248 125.432 108.248 121.72H116.408C116.408 123.128 116.696 124.2 117.272 124.936C117.848 125.64 118.68 125.992 119.768 125.992C120.76 125.992 121.528 125.672 122.072 125.032C122.616 124.392 122.888 123.464 122.888 122.248V99.304H131.096ZM136.094 119.56C136.094 116.808 136.606 114.392 137.63 112.312C138.686 110.232 140.11 108.632 141.902 107.512C143.694 106.392 145.694 105.832 147.902 105.832C149.79 105.832 151.438 106.216 152.846 106.984C154.286 107.752 155.39 108.76 156.158 110.008V106.216H164.366V133H156.158V129.208C155.358 130.456 154.238 131.464 152.798 132.232C151.39 133 149.742 133.384 147.854 133.384C145.678 133.384 143.694 132.824 141.902 131.704C140.11 130.552 138.686 128.936 137.63 126.856C136.606 124.744 136.094 122.312 136.094 119.56ZM156.158 119.608C156.158 117.56 155.582 115.944 154.43 114.76C153.31 113.576 151.934 112.984 150.302 112.984C148.67 112.984 147.278 113.576 146.126 114.76C145.006 115.912 144.446 117.512 144.446 119.56C144.446 121.608 145.006 123.24 146.126 124.456C147.278 125.64 148.67 126.232 150.302 126.232C151.934 126.232 153.31 125.64 154.43 124.456C155.582 123.272 156.158 121.656 156.158 119.608ZM204.48 105.928C207.808 105.928 210.448 106.936 212.4 108.952C214.384 110.968 215.376 113.768 215.376 117.352V133H207.216V118.456C207.216 116.728 206.752 115.4 205.824 114.472C204.928 113.512 203.68 113.032 202.08 113.032C200.48 113.032 199.216 113.512 198.288 114.472C197.392 115.4 196.944 116.728 196.944 118.456V133H188.784V118.456C188.784 116.728 188.32 115.4 187.392 114.472C186.496 113.512 185.248 113.032 183.648 113.032C182.048 113.032 180.784 113.512 179.856 114.472C178.96 115.4 178.512 116.728 178.512 118.456V133H170.304V106.216H178.512V109.576C179.344 108.456 180.432 107.576 181.776 106.936C183.12 106.264 184.64 105.928 186.336 105.928C188.352 105.928 190.144 106.36 191.712 107.224C193.312 108.088 194.56 109.32 195.456 110.92C196.384 109.448 197.648 108.248 199.248 107.32C200.848 106.392 202.592 105.928 204.48 105.928ZM219.485 119.56C219.485 116.808 219.997 114.392 221.021 112.312C222.077 110.232 223.501 108.632 225.293 107.512C227.085 106.392 229.085 105.832 231.293 105.832C233.181 105.832 234.829 106.216 236.237 106.984C237.677 107.752 238.781 108.76 239.549 110.008V106.216H247.757V133H239.549V129.208C238.749 130.456 237.629 131.464 236.189 132.232C234.781 133 233.133 133.384 231.245 133.384C229.069 133.384 227.085 132.824 225.293 131.704C223.501 130.552 222.077 128.936 221.021 126.856C219.997 124.744 219.485 122.312 219.485 119.56ZM239.549 119.608C239.549 117.56 238.973 115.944 237.821 114.76C236.701 113.576 235.325 112.984 233.693 112.984C232.061 112.984 230.669 113.576 229.517 114.76C228.397 115.912 227.837 117.512 227.837 119.56C227.837 121.608 228.397 123.24 229.517 124.456C230.669 125.64 232.061 126.232 233.693 126.232C235.325 126.232 236.701 125.64 237.821 124.456C238.973 123.272 239.549 121.656 239.549 119.608ZM261.903 97.48V133H253.695V97.48H261.903ZM271.979 103.432C270.539 103.432 269.355 103.016 268.427 102.184C267.531 101.32 267.083 100.264 267.083 99.016C267.083 97.736 267.531 96.68 268.427 95.848C269.355 94.984 270.539 94.552 271.979 94.552C273.387 94.552 274.539 94.984 275.435 95.848C276.363 96.68 276.827 97.736 276.827 99.016C276.827 100.264 276.363 101.32 275.435 102.184C274.539 103.016 273.387 103.432 271.979 103.432ZM276.059 106.216V133H267.851V106.216H276.059ZM317.859 110.152C317.859 112.104 317.411 113.896 316.515 115.528C315.619 117.128 314.243 118.424 312.387 119.416C310.531 120.408 308.227 120.904 305.475 120.904H300.387V133H292.179V99.304H305.475C308.163 99.304 310.435 99.768 312.291 100.696C314.147 101.624 315.539 102.904 316.467 104.536C317.395 106.168 317.859 108.04 317.859 110.152ZM304.851 114.376C306.419 114.376 307.587 114.008 308.355 113.272C309.123 112.536 309.507 111.496 309.507 110.152C309.507 108.808 309.123 107.768 308.355 107.032C307.587 106.296 306.419 105.928 304.851 105.928H300.387V114.376H304.851ZM320.5 119.56C320.5 116.808 321.012 114.392 322.036 112.312C323.092 110.232 324.516 108.632 326.308 107.512C328.1 106.392 330.1 105.832 332.308 105.832C334.196 105.832 335.844 106.216 337.252 106.984C338.692 107.752 339.796 108.76 340.564 110.008V106.216H348.772V133H340.564V129.208C339.764 130.456 338.644 131.464 337.204 132.232C335.796 133 334.148 133.384 332.26 133.384C330.084 133.384 328.1 132.824 326.308 131.704C324.516 130.552 323.092 128.936 322.036 126.856C321.012 124.744 320.5 122.312 320.5 119.56ZM340.564 119.608C340.564 117.56 339.988 115.944 338.836 114.76C337.716 113.576 336.34 112.984 334.708 112.984C333.076 112.984 331.684 113.576 330.532 114.76C329.412 115.912 328.852 117.512 328.852 119.56C328.852 121.608 329.412 123.24 330.532 124.456C331.684 125.64 333.076 126.232 334.708 126.232C336.34 126.232 337.716 125.64 338.836 124.456C339.988 123.272 340.564 121.656 340.564 119.608ZM382.07 106.216L365.27 145.72H356.438L362.582 132.088L351.686 106.216H360.854L367.046 122.968L373.19 106.216H382.07Z" fill="white"/>
<path d="M124.408 179.664V183.28H118.456V202H113.976V183.28H108.024V179.664H124.408ZM137.661 184.016C139.005 184.016 140.199 184.315 141.245 184.912C142.29 185.488 143.101 186.352 143.677 187.504C144.274 188.635 144.573 190 144.573 191.6V202H140.093V192.208C140.093 190.8 139.741 189.723 139.037 188.976C138.333 188.208 137.373 187.824 136.157 187.824C134.919 187.824 133.938 188.208 133.213 188.976C132.509 189.723 132.157 190.8 132.157 192.208V202H127.677V178.32H132.157V186.48C132.733 185.712 133.501 185.115 134.461 184.688C135.421 184.24 136.487 184.016 137.661 184.016ZM165.313 192.752C165.313 193.392 165.27 193.968 165.185 194.48H152.225C152.332 195.76 152.78 196.763 153.569 197.488C154.358 198.213 155.329 198.576 156.481 198.576C158.145 198.576 159.329 197.861 160.033 196.432H164.865C164.353 198.139 163.372 199.547 161.921 200.656C160.47 201.744 158.689 202.288 156.577 202.288C154.87 202.288 153.334 201.915 151.969 201.168C150.625 200.4 149.569 199.323 148.801 197.936C148.054 196.549 147.681 194.949 147.681 193.136C147.681 191.301 148.054 189.691 148.801 188.304C149.548 186.917 150.593 185.851 151.937 185.104C153.281 184.357 154.828 183.984 156.577 183.984C158.262 183.984 159.766 184.347 161.089 185.072C162.433 185.797 163.468 186.832 164.193 188.176C164.94 189.499 165.313 191.024 165.313 192.752ZM160.673 191.472C160.652 190.32 160.236 189.403 159.425 188.72C158.614 188.016 157.622 187.664 156.449 187.664C155.34 187.664 154.401 188.005 153.633 188.688C152.886 189.349 152.428 190.277 152.257 191.472H160.673ZM180.688 186.864C181.264 186.011 182.053 185.317 183.056 184.784C184.08 184.251 185.243 183.984 186.544 183.984C188.059 183.984 189.424 184.357 190.64 185.104C191.877 185.851 192.848 186.917 193.552 188.304C194.277 189.669 194.64 191.259 194.64 193.072C194.64 194.885 194.277 196.496 193.552 197.904C192.848 199.291 191.877 200.368 190.64 201.136C189.424 201.904 188.059 202.288 186.544 202.288C185.221 202.288 184.059 202.032 183.056 201.52C182.075 200.987 181.285 200.304 180.688 199.472V202H176.208V178.32H180.688V186.864ZM190.064 193.072C190.064 192.005 189.84 191.088 189.392 190.32C188.965 189.531 188.389 188.933 187.664 188.528C186.96 188.123 186.192 187.92 185.36 187.92C184.549 187.92 183.781 188.133 183.056 188.56C182.352 188.965 181.776 189.563 181.328 190.352C180.901 191.141 180.688 192.069 180.688 193.136C180.688 194.203 180.901 195.131 181.328 195.92C181.776 196.709 182.352 197.317 183.056 197.744C183.781 198.149 184.549 198.352 185.36 198.352C186.192 198.352 186.96 198.139 187.664 197.712C188.389 197.285 188.965 196.677 189.392 195.888C189.84 195.099 190.064 194.16 190.064 193.072ZM214.376 192.752C214.376 193.392 214.333 193.968 214.248 194.48H201.288C201.394 195.76 201.842 196.763 202.632 197.488C203.421 198.213 204.392 198.576 205.544 198.576C207.208 198.576 208.392 197.861 209.096 196.432H213.928C213.416 198.139 212.434 199.547 210.984 200.656C209.533 201.744 207.752 202.288 205.64 202.288C203.933 202.288 202.397 201.915 201.032 201.168C199.688 200.4 198.632 199.323 197.864 197.936C197.117 196.549 196.743 194.949 196.743 193.136C196.743 191.301 197.117 189.691 197.864 188.304C198.61 186.917 199.656 185.851 201 185.104C202.344 184.357 203.89 183.984 205.64 183.984C207.325 183.984 208.829 184.347 210.152 185.072C211.496 185.797 212.53 186.832 213.256 188.176C214.002 189.499 214.376 191.024 214.376 192.752ZM209.736 191.472C209.714 190.32 209.298 189.403 208.488 188.72C207.677 188.016 206.685 187.664 205.512 187.664C204.402 187.664 203.464 188.005 202.696 188.688C201.949 189.349 201.49 190.277 201.32 191.472H209.736ZM224.43 202.288C222.979 202.288 221.678 202.032 220.526 201.52C219.374 200.987 218.456 200.272 217.774 199.376C217.112 198.48 216.75 197.488 216.686 196.4H221.198C221.283 197.083 221.614 197.648 222.19 198.096C222.787 198.544 223.523 198.768 224.398 198.768C225.251 198.768 225.912 198.597 226.382 198.256C226.872 197.915 227.118 197.477 227.118 196.944C227.118 196.368 226.819 195.941 226.222 195.664C225.646 195.365 224.718 195.045 223.438 194.704C222.115 194.384 221.027 194.053 220.174 193.712C219.342 193.371 218.616 192.848 217.998 192.144C217.4 191.44 217.102 190.491 217.102 189.296C217.102 188.315 217.379 187.419 217.934 186.608C218.51 185.797 219.32 185.157 220.366 184.688C221.432 184.219 222.68 183.984 224.11 183.984C226.222 183.984 227.907 184.517 229.166 185.584C230.424 186.629 231.118 188.048 231.246 189.84H226.958C226.894 189.136 226.595 188.581 226.062 188.176C225.55 187.749 224.856 187.536 223.982 187.536C223.171 187.536 222.542 187.685 222.094 187.984C221.667 188.283 221.454 188.699 221.454 189.232C221.454 189.829 221.752 190.288 222.35 190.608C222.947 190.907 223.875 191.216 225.134 191.536C226.414 191.856 227.47 192.187 228.302 192.528C229.134 192.869 229.848 193.403 230.446 194.128C231.064 194.832 231.384 195.771 231.406 196.944C231.406 197.968 231.118 198.885 230.542 199.696C229.987 200.507 229.176 201.147 228.11 201.616C227.064 202.064 225.838 202.288 224.43 202.288ZM240.299 187.952V196.528C240.299 197.125 240.438 197.563 240.715 197.84C241.014 198.096 241.504 198.224 242.187 198.224H244.267V202H241.451C237.675 202 235.787 200.165 235.787 196.496V187.952H233.675V184.272H235.787V179.888H240.299V184.272H244.267V187.952H240.299ZM259.594 186.832C260.17 186.021 260.96 185.349 261.962 184.816C262.986 184.261 264.149 183.984 265.45 183.984C266.965 183.984 268.33 184.357 269.546 185.104C270.784 185.851 271.754 186.917 272.458 188.304C273.184 189.669 273.546 191.259 273.546 193.072C273.546 194.885 273.184 196.496 272.458 197.904C271.754 199.291 270.784 200.368 269.546 201.136C268.33 201.904 266.965 202.288 265.45 202.288C264.149 202.288 262.997 202.021 261.994 201.488C261.013 200.955 260.213 200.283 259.594 199.472V210.448H255.114V184.272H259.594V186.832ZM268.97 193.072C268.97 192.005 268.746 191.088 268.298 190.32C267.872 189.531 267.296 188.933 266.57 188.528C265.866 188.123 265.098 187.92 264.266 187.92C263.456 187.92 262.688 188.133 261.962 188.56C261.258 188.965 260.682 189.563 260.234 190.352C259.808 191.141 259.594 192.069 259.594 193.136C259.594 194.203 259.808 195.131 260.234 195.92C260.682 196.709 261.258 197.317 261.962 197.744C262.688 198.149 263.456 198.352 264.266 198.352C265.098 198.352 265.866 198.139 266.57 197.712C267.296 197.285 267.872 196.677 268.298 195.888C268.746 195.099 268.97 194.16 268.97 193.072ZM275.65 193.072C275.65 191.28 276.002 189.691 276.706 188.304C277.431 186.917 278.402 185.851 279.618 185.104C280.855 184.357 282.231 183.984 283.746 183.984C285.068 183.984 286.22 184.251 287.202 184.784C288.204 185.317 289.004 185.989 289.602 186.8V184.272H294.114V202H289.602V199.408C289.026 200.24 288.226 200.933 287.202 201.488C286.199 202.021 285.036 202.288 283.714 202.288C282.22 202.288 280.855 201.904 279.618 201.136C278.402 200.368 277.431 199.291 276.706 197.904C276.002 196.496 275.65 194.885 275.65 193.072ZM289.602 193.136C289.602 192.048 289.388 191.12 288.962 190.352C288.535 189.563 287.959 188.965 287.234 188.56C286.508 188.133 285.73 187.92 284.898 187.92C284.066 187.92 283.298 188.123 282.594 188.528C281.89 188.933 281.314 189.531 280.866 190.32C280.439 191.088 280.226 192.005 280.226 193.072C280.226 194.139 280.439 195.077 280.866 195.888C281.314 196.677 281.89 197.285 282.594 197.712C283.319 198.139 284.087 198.352 284.898 198.352C285.73 198.352 286.508 198.149 287.234 197.744C287.959 197.317 288.535 196.72 288.962 195.952C289.388 195.163 289.602 194.224 289.602 193.136ZM315.449 184.272L304.473 210.384H299.705L303.545 201.552L296.441 184.272H301.465L306.041 196.656L310.681 184.272H315.449ZM339.88 184.016C342.056 184.016 343.806 184.688 345.128 186.032C346.472 187.355 347.144 189.211 347.144 191.6V202H342.664V192.208C342.664 190.821 342.312 189.765 341.608 189.04C340.904 188.293 339.944 187.92 338.728 187.92C337.512 187.92 336.542 188.293 335.816 189.04C335.112 189.765 334.76 190.821 334.76 192.208V202H330.28V192.208C330.28 190.821 329.928 189.765 329.224 189.04C328.52 188.293 327.56 187.92 326.344 187.92C325.107 187.92 324.126 188.293 323.4 189.04C322.696 189.765 322.344 190.821 322.344 192.208V202H317.864V184.272H322.344V186.416C322.92 185.669 323.656 185.083 324.552 184.656C325.47 184.229 326.472 184.016 327.56 184.016C328.947 184.016 330.184 184.315 331.272 184.912C332.36 185.488 333.203 186.32 333.8 187.408C334.376 186.384 335.208 185.563 336.296 184.944C337.406 184.325 338.6 184.016 339.88 184.016ZM367.876 192.752C367.876 193.392 367.833 193.968 367.748 194.48H354.788C354.894 195.76 355.342 196.763 356.132 197.488C356.921 198.213 357.892 198.576 359.044 198.576C360.708 198.576 361.892 197.861 362.596 196.432H367.428C366.916 198.139 365.934 199.547 364.484 200.656C363.033 201.744 361.252 202.288 359.14 202.288C357.433 202.288 355.897 201.915 354.532 201.168C353.188 200.4 352.132 199.323 351.364 197.936C350.617 196.549 350.243 194.949 350.243 193.136C350.243 191.301 350.617 189.691 351.364 188.304C352.11 186.917 353.156 185.851 354.5 185.104C355.844 184.357 357.39 183.984 359.14 183.984C360.825 183.984 362.329 184.347 363.652 185.072C364.996 185.797 366.03 186.832 366.756 188.176C367.502 189.499 367.876 191.024 367.876 192.752ZM363.236 191.472C363.214 190.32 362.798 189.403 361.988 188.72C361.177 188.016 360.185 187.664 359.012 187.664C357.902 187.664 356.964 188.005 356.196 188.688C355.449 189.349 354.99 190.277 354.82 191.472H363.236ZM380.97 184.016C383.082 184.016 384.788 184.688 386.09 186.032C387.391 187.355 388.042 189.211 388.042 191.6V202H383.562V192.208C383.562 190.8 383.21 189.723 382.506 188.976C381.802 188.208 380.842 187.824 379.626 187.824C378.388 187.824 377.407 188.208 376.682 188.976C375.978 189.723 375.626 190.8 375.626 192.208V202H371.146V184.272H375.626V186.48C376.223 185.712 376.98 185.115 377.898 184.688C378.836 184.24 379.86 184.016 380.97 184.016ZM397.518 187.952V196.528C397.518 197.125 397.656 197.563 397.934 197.84C398.232 198.096 398.723 198.224 399.406 198.224H401.486V202H398.67C394.894 202 393.006 200.165 393.006 196.496V187.952H390.894V184.272H393.006V179.888H397.518V184.272H401.486V187.952H397.518ZM419.277 183.984C420.6 183.984 421.762 184.251 422.765 184.784C423.768 185.296 424.557 185.968 425.133 186.8V184.272H429.645V202.128C429.645 203.771 429.314 205.232 428.653 206.512C427.992 207.813 427 208.837 425.677 209.584C424.354 210.352 422.754 210.736 420.877 210.736C418.36 210.736 416.29 210.149 414.669 208.976C413.069 207.803 412.162 206.203 411.949 204.176H416.397C416.632 204.987 417.133 205.627 417.901 206.096C418.69 206.587 419.64 206.832 420.749 206.832C422.05 206.832 423.106 206.437 423.917 205.648C424.728 204.88 425.133 203.707 425.133 202.128V199.376C424.557 200.208 423.757 200.901 422.733 201.456C421.73 202.011 420.578 202.288 419.277 202.288C417.784 202.288 416.418 201.904 415.181 201.136C413.944 200.368 412.962 199.291 412.237 197.904C411.533 196.496 411.181 194.885 411.181 193.072C411.181 191.28 411.533 189.691 412.237 188.304C412.962 186.917 413.933 185.851 415.149 185.104C416.386 184.357 417.762 183.984 419.277 183.984ZM425.133 193.136C425.133 192.048 424.92 191.12 424.493 190.352C424.066 189.563 423.49 188.965 422.765 188.56C422.04 188.133 421.261 187.92 420.429 187.92C419.597 187.92 418.829 188.123 418.125 188.528C417.421 188.933 416.845 189.531 416.397 190.32C415.97 191.088 415.757 192.005 415.757 193.072C415.757 194.139 415.97 195.077 416.397 195.888C416.845 196.677 417.421 197.285 418.125 197.712C418.85 198.139 419.618 198.352 420.429 198.352C421.261 198.352 422.04 198.149 422.765 197.744C423.49 197.317 424.066 196.72 424.493 195.952C424.92 195.163 425.133 194.224 425.133 193.136ZM432.868 193.072C432.868 191.28 433.22 189.691 433.924 188.304C434.65 186.917 435.621 185.851 436.837 185.104C438.074 184.357 439.45 183.984 440.965 183.984C442.287 183.984 443.439 184.251 444.421 184.784C445.423 185.317 446.223 185.989 446.821 186.8V184.272H451.333V202H446.821V199.408C446.245 200.24 445.445 200.933 444.421 201.488C443.418 202.021 442.255 202.288 440.933 202.288C439.439 202.288 438.074 201.904 436.837 201.136C435.621 200.368 434.65 199.291 433.924 197.904C433.22 196.496 432.868 194.885 432.868 193.072ZM446.821 193.136C446.821 192.048 446.607 191.12 446.181 190.352C445.754 189.563 445.178 188.965 444.453 188.56C443.727 188.133 442.949 187.92 442.117 187.92C441.285 187.92 440.517 188.123 439.812 188.528C439.109 188.933 438.533 189.531 438.085 190.32C437.658 191.088 437.445 192.005 437.445 193.072C437.445 194.139 437.658 195.077 438.085 195.888C438.533 196.677 439.109 197.285 439.812 197.712C440.538 198.139 441.306 198.352 442.117 198.352C442.949 198.352 443.727 198.149 444.453 197.744C445.178 197.317 445.754 196.72 446.181 195.952C446.607 195.163 446.821 194.224 446.821 193.136ZM460.924 187.952V196.528C460.924 197.125 461.063 197.563 461.34 197.84C461.639 198.096 462.129 198.224 462.812 198.224H464.892V202H462.076C458.3 202 456.412 200.165 456.412 196.496V187.952H454.3V184.272H456.412V179.888H460.924V184.272H464.892V187.952H460.924ZM484.594 192.752C484.594 193.392 484.552 193.968 484.466 194.48H471.506C471.613 195.76 472.061 196.763 472.85 197.488C473.64 198.213 474.61 198.576 475.762 198.576C477.426 198.576 478.61 197.861 479.314 196.432H484.146C483.634 198.139 482.653 199.547 481.202 200.656C479.752 201.744 477.97 202.288 475.858 202.288C474.152 202.288 472.616 201.915 471.25 201.168C469.906 200.4 468.85 199.323 468.082 197.936C467.336 196.549 466.962 194.949 466.962 193.136C466.962 191.301 467.336 189.691 468.082 188.304C468.829 186.917 469.874 185.851 471.218 185.104C472.562 184.357 474.109 183.984 475.858 183.984C477.544 183.984 479.048 184.347 480.37 185.072C481.714 185.797 482.749 186.832 483.474 188.176C484.221 189.499 484.594 191.024 484.594 192.752ZM479.954 191.472C479.933 190.32 479.517 189.403 478.706 188.72C477.896 188.016 476.904 187.664 475.73 187.664C474.621 187.664 473.682 188.005 472.914 188.688C472.168 189.349 471.709 190.277 471.538 191.472H479.954ZM512.44 184.272L507.256 202H502.424L499.192 189.616L495.96 202H491.096L485.88 184.272H490.424L493.56 197.776L496.952 184.272H501.688L505.016 197.744L508.152 184.272H512.44ZM513.712 193.072C513.712 191.28 514.064 189.691 514.768 188.304C515.494 186.917 516.464 185.851 517.68 185.104C518.918 184.357 520.294 183.984 521.808 183.984C523.131 183.984 524.283 184.251 525.264 184.784C526.267 185.317 527.067 185.989 527.664 186.8V184.272H532.176V202H527.664V199.408C527.088 200.24 526.288 200.933 525.264 201.488C524.262 202.021 523.099 202.288 521.776 202.288C520.283 202.288 518.918 201.904 517.68 201.136C516.464 200.368 515.494 199.291 514.768 197.904C514.064 196.496 513.712 194.885 513.712 193.072ZM527.664 193.136C527.664 192.048 527.451 191.12 527.024 190.352C526.598 189.563 526.022 188.965 525.296 188.56C524.571 188.133 523.792 187.92 522.96 187.92C522.128 187.92 521.36 188.123 520.656 188.528C519.952 188.933 519.376 189.531 518.928 190.32C518.502 191.088 518.288 192.005 518.288 193.072C518.288 194.139 518.502 195.077 518.928 195.888C519.376 196.677 519.952 197.285 520.656 197.712C521.382 198.139 522.15 198.352 522.96 198.352C523.792 198.352 524.571 198.149 525.296 197.744C526.022 197.317 526.598 196.72 527.024 195.952C527.451 195.163 527.664 194.224 527.664 193.136ZM553.512 184.272L542.536 210.384H537.768L541.608 201.552L534.504 184.272H539.528L544.104 196.656L548.744 184.272H553.512ZM115.992 250.288C114.541 250.288 113.24 250.032 112.088 249.52C110.936 248.987 110.019 248.272 109.336 247.376C108.675 246.48 108.312 245.488 108.248 244.4H112.76C112.845 245.083 113.176 245.648 113.752 246.096C114.349 246.544 115.085 246.768 115.96 246.768C116.813 246.768 117.475 246.597 117.944 246.256C118.435 245.915 118.68 245.477 118.68 244.944C118.68 244.368 118.381 243.941 117.784 243.664C117.208 243.365 116.28 243.045 115 242.704C113.677 242.384 112.589 242.053 111.736 241.712C110.904 241.371 110.179 240.848 109.56 240.144C108.963 239.44 108.664 238.491 108.664 237.296C108.664 236.315 108.941 235.419 109.496 234.608C110.072 233.797 110.883 233.157 111.928 232.688C112.995 232.219 114.243 231.984 115.672 231.984C117.784 231.984 119.469 232.517 120.728 233.584C121.987 234.629 122.68 236.048 122.808 237.84H118.52C118.456 237.136 118.157 236.581 117.624 236.176C117.112 235.749 116.419 235.536 115.544 235.536C114.733 235.536 114.104 235.685 113.656 235.984C113.229 236.283 113.016 236.699 113.016 237.232C113.016 237.829 113.315 238.288 113.912 238.608C114.509 238.907 115.437 239.216 116.696 239.536C117.976 239.856 119.032 240.187 119.864 240.528C120.696 240.869 121.411 241.403 122.008 242.128C122.627 242.832 122.947 243.771 122.968 244.944C122.968 245.968 122.68 246.885 122.104 247.696C121.549 248.507 120.739 249.147 119.672 249.616C118.627 250.064 117.4 250.288 115.992 250.288ZM134.518 250.288C132.811 250.288 131.275 249.915 129.91 249.168C128.544 248.4 127.467 247.323 126.678 245.936C125.91 244.549 125.526 242.949 125.526 241.136C125.526 239.323 125.92 237.723 126.71 236.336C127.52 234.949 128.619 233.883 130.006 233.136C131.392 232.368 132.939 231.984 134.646 231.984C136.352 231.984 137.899 232.368 139.286 233.136C140.672 233.883 141.76 234.949 142.55 236.336C143.36 237.723 143.766 239.323 143.766 241.136C143.766 242.949 143.35 244.549 142.517 245.936C141.707 247.323 140.598 248.4 139.19 249.168C137.803 249.915 136.246 250.288 134.518 250.288ZM134.518 246.384C135.328 246.384 136.086 246.192 136.79 245.808C137.515 245.403 138.091 244.805 138.518 244.016C138.944 243.227 139.158 242.267 139.158 241.136C139.158 239.451 138.71 238.16 137.814 237.264C136.939 236.347 135.862 235.888 134.582 235.888C133.302 235.888 132.224 236.347 131.35 237.264C130.496 238.16 130.07 239.451 130.07 241.136C130.07 242.821 130.486 244.123 131.318 245.04C132.171 245.936 133.238 246.384 134.518 246.384ZM151.532 226.32V250H147.052V226.32H151.532ZM172.694 232.272V250H168.182V247.76C167.606 248.528 166.849 249.136 165.91 249.584C164.993 250.011 163.99 250.224 162.902 250.224C161.515 250.224 160.289 249.936 159.222 249.36C158.155 248.763 157.313 247.899 156.694 246.768C156.097 245.616 155.798 244.251 155.798 242.672V232.272H160.278V242.032C160.278 243.44 160.63 244.528 161.334 245.296C162.038 246.043 162.998 246.416 164.214 246.416C165.451 246.416 166.422 246.043 167.126 245.296C167.83 244.528 168.182 243.44 168.182 242.032V232.272H172.694ZM182.33 235.952V244.528C182.33 245.125 182.469 245.563 182.746 245.84C183.045 246.096 183.536 246.224 184.218 246.224H186.298V250H183.482C179.706 250 177.818 248.165 177.818 244.496V235.952H175.706V232.272H177.818V227.888H182.33V232.272H186.298V235.952H182.33ZM191.793 230.16C191.003 230.16 190.342 229.915 189.809 229.424C189.297 228.912 189.041 228.283 189.041 227.536C189.041 226.789 189.297 226.171 189.809 225.68C190.342 225.168 191.003 224.912 191.793 224.912C192.582 224.912 193.233 225.168 193.745 225.68C194.278 226.171 194.545 226.789 194.545 227.536C194.545 228.283 194.278 228.912 193.745 229.424C193.233 229.915 192.582 230.16 191.793 230.16ZM194.001 232.272V250H189.521V232.272H194.001ZM206.299 250.288C204.592 250.288 203.056 249.915 201.691 249.168C200.325 248.4 199.248 247.323 198.459 245.936C197.691 244.549 197.307 242.949 197.307 241.136C197.307 239.323 197.701 237.723 198.491 236.336C199.301 234.949 200.4 233.883 201.787 233.136C203.173 232.368 204.72 231.984 206.427 231.984C208.133 231.984 209.68 232.368 211.067 233.136C212.453 233.883 213.541 234.949 214.331 236.336C215.141 237.723 215.547 239.323 215.547 241.136C215.547 242.949 215.131 244.549 214.299 245.936C213.488 247.323 212.379 248.4 210.971 249.168C209.584 249.915 208.027 250.288 206.299 250.288ZM206.299 246.384C207.109 246.384 207.867 246.192 208.571 245.808C209.296 245.403 209.872 244.805 210.299 244.016C210.725 243.227 210.939 242.267 210.939 241.136C210.939 239.451 210.491 238.16 209.595 237.264C208.72 236.347 207.643 235.888 206.363 235.888C205.083 235.888 204.005 236.347 203.131 237.264C202.277 238.16 201.851 239.451 201.851 241.136C201.851 242.821 202.267 244.123 203.099 245.04C203.952 245.936 205.019 246.384 206.299 246.384ZM228.657 232.016C230.769 232.016 232.476 232.688 233.777 234.032C235.078 235.355 235.729 237.211 235.729 239.6V250H231.249V240.208C231.249 238.8 230.897 237.723 230.193 236.976C229.489 236.208 228.529 235.824 227.313 235.824C226.076 235.824 225.094 236.208 224.369 236.976C223.665 237.723 223.313 238.8 223.313 240.208V250H218.833V232.272H223.313V234.48C223.91 233.712 224.668 233.115 225.585 232.688C226.524 232.24 227.548 232.016 228.657 232.016ZM255.742 235.952H252.638V250H248.094V235.952H246.078V232.272H248.094V231.376C248.094 229.2 248.713 227.6 249.95 226.576C251.188 225.552 253.054 225.072 255.55 225.136V228.912C254.462 228.891 253.705 229.072 253.278 229.456C252.852 229.84 252.638 230.533 252.638 231.536V232.272H255.742V235.952ZM266.518 250.288C264.811 250.288 263.275 249.915 261.91 249.168C260.544 248.4 259.467 247.323 258.678 245.936C257.91 244.549 257.526 242.949 257.526 241.136C257.526 239.323 257.92 237.723 258.71 236.336C259.52 234.949 260.619 233.883 262.006 233.136C263.392 232.368 264.939 231.984 266.646 231.984C268.352 231.984 269.899 232.368 271.286 233.136C272.672 233.883 273.76 234.949 274.55 236.336C275.36 237.723 275.766 239.323 275.766 241.136C275.766 242.949 275.35 244.549 274.517 245.936C273.707 247.323 272.598 248.4 271.19 249.168C269.803 249.915 268.246 250.288 266.518 250.288ZM266.518 246.384C267.328 246.384 268.086 246.192 268.79 245.808C269.515 245.403 270.091 244.805 270.518 244.016C270.944 243.227 271.158 242.267 271.158 241.136C271.158 239.451 270.71 238.16 269.814 237.264C268.939 236.347 267.862 235.888 266.582 235.888C265.302 235.888 264.224 236.347 263.35 237.264C262.496 238.16 262.07 239.451 262.07 241.136C262.07 242.821 262.486 244.123 263.318 245.04C264.171 245.936 265.238 246.384 266.518 246.384ZM283.532 235.024C284.108 234.085 284.854 233.349 285.772 232.816C286.71 232.283 287.777 232.016 288.972 232.016V236.72H287.788C286.38 236.72 285.313 237.051 284.588 237.712C283.884 238.373 283.532 239.525 283.532 241.168V250H279.052V232.272H283.532V235.024ZM307.326 250.224C305.769 250.224 304.361 249.957 303.102 249.424C301.865 248.891 300.884 248.123 300.158 247.12C299.433 246.117 299.06 244.933 299.038 243.568H303.838C303.902 244.485 304.222 245.211 304.798 245.744C305.396 246.277 306.206 246.544 307.23 246.544C308.276 246.544 309.097 246.299 309.694 245.808C310.292 245.296 310.59 244.635 310.59 243.824C310.59 243.163 310.388 242.619 309.982 242.192C309.577 241.765 309.065 241.435 308.446 241.2C307.849 240.944 307.017 240.667 305.95 240.368C304.5 239.941 303.316 239.525 302.398 239.12C301.502 238.693 300.724 238.064 300.062 237.232C299.422 236.379 299.102 235.248 299.102 233.84C299.102 232.517 299.433 231.365 300.094 230.384C300.756 229.403 301.684 228.656 302.878 228.144C304.073 227.611 305.438 227.344 306.974 227.344C309.278 227.344 311.145 227.909 312.574 229.04C314.025 230.149 314.825 231.707 314.974 233.712H310.046C310.004 232.944 309.673 232.315 309.054 231.824C308.457 231.312 307.657 231.056 306.654 231.056C305.78 231.056 305.076 231.28 304.542 231.728C304.03 232.176 303.774 232.827 303.774 233.68C303.774 234.277 303.966 234.779 304.35 235.184C304.756 235.568 305.246 235.888 305.822 236.144C306.42 236.379 307.252 236.656 308.318 236.976C309.769 237.403 310.953 237.829 311.87 238.256C312.788 238.683 313.577 239.323 314.238 240.176C314.9 241.029 315.23 242.149 315.23 243.536C315.23 244.731 314.921 245.84 314.302 246.864C313.684 247.888 312.777 248.709 311.582 249.328C310.388 249.925 308.969 250.224 307.326 250.224ZM317.962 241.072C317.962 239.28 318.314 237.691 319.018 236.304C319.744 234.917 320.714 233.851 321.93 233.104C323.168 232.357 324.544 231.984 326.058 231.984C327.381 231.984 328.533 232.251 329.514 232.784C330.517 233.317 331.317 233.989 331.914 234.8V232.272H336.426V250H331.914V247.408C331.338 248.24 330.538 248.933 329.514 249.488C328.512 250.021 327.349 250.288 326.026 250.288C324.533 250.288 323.168 249.904 321.93 249.136C320.714 248.368 319.744 247.291 319.018 245.904C318.314 244.496 317.962 242.885 317.962 241.072ZM331.914 241.136C331.914 240.048 331.701 239.12 331.274 238.352C330.848 237.563 330.272 236.965 329.546 236.56C328.821 236.133 328.042 235.92 327.21 235.92C326.378 235.92 325.61 236.123 324.906 236.528C324.202 236.933 323.626 237.531 323.178 238.32C322.752 239.088 322.538 240.005 322.538 241.072C322.538 242.139 322.752 243.077 323.178 243.888C323.626 244.677 324.202 245.285 324.906 245.712C325.632 246.139 326.4 246.352 327.21 246.352C328.042 246.352 328.821 246.149 329.546 245.744C330.272 245.317 330.848 244.72 331.274 243.952C331.701 243.163 331.914 242.224 331.914 241.136ZM339.65 241.072C339.65 239.28 340.002 237.691 340.706 236.304C341.431 234.917 342.402 233.851 343.618 233.104C344.855 232.357 346.231 231.984 347.746 231.984C349.068 231.984 350.22 232.251 351.202 232.784C352.204 233.317 353.004 233.989 353.602 234.8V232.272H358.114V250H353.602V247.408C353.026 248.24 352.226 248.933 351.202 249.488C350.199 250.021 349.036 250.288 347.714 250.288C346.22 250.288 344.855 249.904 343.618 249.136C342.402 248.368 341.431 247.291 340.706 245.904C340.002 244.496 339.65 242.885 339.65 241.072ZM353.602 241.136C353.602 240.048 353.388 239.12 352.962 238.352C352.535 237.563 351.959 236.965 351.234 236.56C350.508 236.133 349.73 235.92 348.898 235.92C348.066 235.92 347.298 236.123 346.594 236.528C345.89 236.933 345.314 237.531 344.866 238.32C344.439 239.088 344.226 240.005 344.226 241.072C344.226 242.139 344.439 243.077 344.866 243.888C345.314 244.677 345.89 245.285 346.594 245.712C347.319 246.139 348.087 246.352 348.898 246.352C349.73 246.352 350.508 246.149 351.234 245.744C351.959 245.317 352.535 244.72 352.962 243.952C353.388 243.163 353.602 242.224 353.602 241.136ZM370.201 250.224C368.644 250.224 367.236 249.957 365.977 249.424C364.74 248.891 363.759 248.123 363.033 247.12C362.308 246.117 361.935 244.933 361.913 243.568H366.713C366.777 244.485 367.097 245.211 367.673 245.744C368.271 246.277 369.081 246.544 370.105 246.544C371.151 246.544 371.972 246.299 372.569 245.808C373.167 245.296 373.465 244.635 373.465 243.824C373.465 243.163 373.263 242.619 372.857 242.192C372.452 241.765 371.94 241.435 371.321 241.2C370.724 240.944 369.892 240.667 368.825 240.368C367.375 239.941 366.191 239.525 365.273 239.12C364.377 238.693 363.599 238.064 362.937 237.232C362.297 236.379 361.977 235.248 361.977 233.84C361.977 232.517 362.308 231.365 362.969 230.384C363.631 229.403 364.559 228.656 365.753 228.144C366.948 227.611 368.313 227.344 369.849 227.344C372.153 227.344 374.02 227.909 375.449 229.04C376.9 230.149 377.7 231.707 377.849 233.712H372.921C372.879 232.944 372.548 232.315 371.929 231.824C371.332 231.312 370.532 231.056 369.529 231.056C368.655 231.056 367.951 231.28 367.417 231.728C366.905 232.176 366.649 232.827 366.649 233.68C366.649 234.277 366.841 234.779 367.225 235.184C367.631 235.568 368.121 235.888 368.697 236.144C369.295 236.379 370.127 236.656 371.193 236.976C372.644 237.403 373.828 237.829 374.745 238.256C375.663 238.683 376.452 239.323 377.113 240.176C377.775 241.029 378.105 242.149 378.105 243.536C378.105 244.731 377.796 245.84 377.177 246.864C376.559 247.888 375.652 248.709 374.457 249.328C373.263 249.925 371.844 250.224 370.201 250.224ZM402.286 238.544C403.545 238.779 404.58 239.408 405.39 240.432C406.201 241.456 406.606 242.629 406.606 243.952C406.606 245.147 406.308 246.203 405.71 247.12C405.134 248.016 404.292 248.72 403.182 249.232C402.073 249.744 400.761 250 399.246 250H389.614V227.664H398.83C400.345 227.664 401.646 227.909 402.734 228.4C403.844 228.891 404.676 229.573 405.23 230.448C405.806 231.323 406.094 232.315 406.094 233.424C406.094 234.725 405.742 235.813 405.038 236.688C404.356 237.563 403.438 238.181 402.286 238.544ZM394.094 236.88H398.19C399.257 236.88 400.078 236.645 400.654 236.176C401.23 235.685 401.518 234.992 401.518 234.096C401.518 233.2 401.23 232.507 400.654 232.016C400.078 231.525 399.257 231.28 398.19 231.28H394.094V236.88ZM398.606 246.352C399.694 246.352 400.537 246.096 401.134 245.584C401.753 245.072 402.062 244.347 402.062 243.408C402.062 242.448 401.742 241.701 401.102 241.168C400.462 240.613 399.598 240.336 398.51 240.336H394.094V246.352H398.606ZM426.913 232.272V250H422.401V247.76C421.825 248.528 421.067 249.136 420.129 249.584C419.211 250.011 418.209 250.224 417.121 250.224C415.734 250.224 414.507 249.936 413.441 249.36C412.374 248.763 411.531 247.899 410.913 246.768C410.315 245.616 410.017 244.251 410.017 242.672V232.272H414.497V242.032C414.497 243.44 414.849 244.528 415.553 245.296C416.257 246.043 417.217 246.416 418.433 246.416C419.67 246.416 420.641 246.043 421.345 245.296C422.049 244.528 422.401 243.44 422.401 242.032V232.272H426.913ZM438.117 250.288C436.666 250.288 435.365 250.032 434.213 249.52C433.061 248.987 432.144 248.272 431.461 247.376C430.8 246.48 430.437 245.488 430.373 244.4H434.885C434.97 245.083 435.301 245.648 435.877 246.096C436.474 246.544 437.21 246.768 438.085 246.768C438.938 246.768 439.6 246.597 440.069 246.256C440.56 245.915 440.805 245.477 440.805 244.944C440.805 244.368 440.506 243.941 439.909 243.664C439.333 243.365 438.405 243.045 437.125 242.704C435.802 242.384 434.714 242.053 433.861 241.712C433.029 241.371 432.304 240.848 431.685 240.144C431.088 239.44 430.789 238.491 430.789 237.296C430.789 236.315 431.066 235.419 431.621 234.608C432.197 233.797 433.008 233.157 434.053 232.688C435.12 232.219 436.368 231.984 437.797 231.984C439.909 231.984 441.594 232.517 442.853 233.584C444.112 234.629 444.805 236.048 444.933 237.84H440.645C440.581 237.136 440.282 236.581 439.749 236.176C439.237 235.749 438.544 235.536 437.669 235.536C436.858 235.536 436.229 235.685 435.781 235.984C435.354 236.283 435.141 236.699 435.141 237.232C435.141 237.829 435.44 238.288 436.037 238.608C436.634 238.907 437.562 239.216 438.821 239.536C440.101 239.856 441.157 240.187 441.989 240.528C442.821 240.869 443.536 241.403 444.133 242.128C444.752 242.832 445.072 243.771 445.093 244.944C445.093 245.968 444.805 246.885 444.229 247.696C443.674 248.507 442.864 249.147 441.797 249.616C440.752 250.064 439.525 250.288 438.117 250.288ZM458.595 232.016C460.707 232.016 462.413 232.688 463.715 234.032C465.016 235.355 465.667 237.211 465.667 239.6V250H461.187V240.208C461.187 238.8 460.835 237.723 460.131 236.976C459.427 236.208 458.467 235.824 457.251 235.824C456.013 235.824 455.032 236.208 454.307 236.976C453.603 237.723 453.251 238.8 453.251 240.208V250H448.771V232.272H453.251V234.48C453.848 233.712 454.605 233.115 455.523 232.688C456.461 232.24 457.485 232.016 458.595 232.016ZM472.199 230.16C471.409 230.16 470.748 229.915 470.215 229.424C469.703 228.912 469.447 228.283 469.447 227.536C469.447 226.789 469.703 226.171 470.215 225.68C470.748 225.168 471.409 224.912 472.199 224.912C472.988 224.912 473.639 225.168 474.151 225.68C474.684 226.171 474.951 226.789 474.951 227.536C474.951 228.283 474.684 228.912 474.151 229.424C473.639 229.915 472.988 230.16 472.199 230.16ZM474.407 232.272V250H469.927V232.272H474.407ZM495.313 240.752C495.313 241.392 495.27 241.968 495.185 242.48H482.225C482.332 243.76 482.78 244.763 483.569 245.488C484.358 246.213 485.329 246.576 486.481 246.576C488.145 246.576 489.329 245.861 490.033 244.432H494.865C494.353 246.139 493.372 247.547 491.921 248.656C490.47 249.744 488.689 250.288 486.577 250.288C484.87 250.288 483.334 249.915 481.969 249.168C480.625 248.4 479.569 247.323 478.801 245.936C478.054 244.549 477.681 242.949 477.681 241.136C477.681 239.301 478.054 237.691 478.801 236.304C479.548 234.917 480.593 233.851 481.937 233.104C483.281 232.357 484.828 231.984 486.577 231.984C488.262 231.984 489.766 232.347 491.089 233.072C492.433 233.797 493.468 234.832 494.193 236.176C494.94 237.499 495.313 239.024 495.313 240.752ZM490.673 239.472C490.652 238.32 490.236 237.403 489.425 236.72C488.614 236.016 487.622 235.664 486.449 235.664C485.34 235.664 484.401 236.005 483.633 236.688C482.886 237.349 482.428 238.277 482.257 239.472H490.673ZM505.367 250.288C503.916 250.288 502.615 250.032 501.463 249.52C500.311 248.987 499.394 248.272 498.711 247.376C498.05 246.48 497.687 245.488 497.623 244.4H502.135C502.22 245.083 502.551 245.648 503.127 246.096C503.724 246.544 504.46 246.768 505.335 246.768C506.188 246.768 506.85 246.597 507.319 246.256C507.81 245.915 508.055 245.477 508.055 244.944C508.055 244.368 507.756 243.941 507.159 243.664C506.583 243.365 505.655 243.045 504.375 242.704C503.052 242.384 501.964 242.053 501.111 241.712C500.279 241.371 499.554 240.848 498.935 240.144C498.338 239.44 498.039 238.491 498.039 237.296C498.039 236.315 498.316 235.419 498.871 234.608C499.447 233.797 500.258 233.157 501.303 232.688C502.37 232.219 503.618 231.984 505.047 231.984C507.159 231.984 508.844 232.517 510.103 233.584C511.362 234.629 512.055 236.048 512.183 237.84H507.895C507.831 237.136 507.532 236.581 506.999 236.176C506.487 235.749 505.794 235.536 504.919 235.536C504.108 235.536 503.479 235.685 503.031 235.984C502.604 236.283 502.391 236.699 502.391 237.232C502.391 237.829 502.69 238.288 503.287 238.608C503.884 238.907 504.812 239.216 506.071 239.536C507.351 239.856 508.407 240.187 509.239 240.528C510.071 240.869 510.786 241.403 511.383 242.128C512.002 242.832 512.322 243.771 512.343 244.944C512.343 245.968 512.055 246.885 511.479 247.696C510.924 248.507 510.114 249.147 509.047 249.616C508.002 250.064 506.775 250.288 505.367 250.288ZM522.805 250.288C521.354 250.288 520.053 250.032 518.901 249.52C517.749 248.987 516.831 248.272 516.149 247.376C515.487 246.48 515.125 245.488 515.061 244.4H519.573C519.658 245.083 519.989 245.648 520.565 246.096C521.162 246.544 521.898 246.768 522.773 246.768C523.626 246.768 524.287 246.597 524.757 246.256C525.247 245.915 525.493 245.477 525.493 244.944C525.493 244.368 525.194 243.941 524.597 243.664C524.021 243.365 523.093 243.045 521.812 242.704C520.49 242.384 519.402 242.053 518.549 241.712C517.717 241.371 516.991 240.848 516.373 240.144C515.775 239.44 515.477 238.491 515.477 237.296C515.477 236.315 515.754 235.419 516.309 234.608C516.885 233.797 517.695 233.157 518.741 232.688C519.807 232.219 521.055 231.984 522.485 231.984C524.597 231.984 526.282 232.517 527.541 233.584C528.799 234.629 529.493 236.048 529.621 237.84H525.333C525.269 237.136 524.97 236.581 524.437 236.176C523.925 235.749 523.231 235.536 522.357 235.536C521.546 235.536 520.917 235.685 520.469 235.984C520.042 236.283 519.829 236.699 519.829 237.232C519.829 237.829 520.127 238.288 520.725 238.608C521.322 238.907 522.25 239.216 523.509 239.536C524.789 239.856 525.845 240.187 526.677 240.528C527.509 240.869 528.223 241.403 528.821 242.128C529.439 242.832 529.759 243.771 529.781 244.944C529.781 245.968 529.493 246.885 528.917 247.696C528.362 248.507 527.551 249.147 526.485 249.616C525.439 250.064 524.213 250.288 522.805 250.288Z" fill="white" fill-opacity="0.76"/>
<path d="M139.064 347.664L132.824 370H127.544L123.352 354.096L118.968 370L113.72 370.032L107.704 347.664H112.504L116.44 365.008L120.984 347.664H125.976L130.264 364.912L134.232 347.664H139.064ZM158.469 360.752C158.469 361.392 158.427 361.968 158.341 362.48H145.381C145.488 363.76 145.936 364.763 146.725 365.488C147.515 366.213 148.485 366.576 149.637 366.576C151.301 366.576 152.485 365.861 153.189 364.432H158.021C157.509 366.139 156.528 367.547 155.077 368.656C153.627 369.744 151.845 370.288 149.733 370.288C148.027 370.288 146.491 369.915 145.125 369.168C143.781 368.4 142.725 367.323 141.957 365.936C141.211 364.549 140.837 362.949 140.837 361.136C140.837 359.301 141.211 357.691 141.957 356.304C142.704 354.917 143.749 353.851 145.093 353.104C146.437 352.357 147.984 351.984 149.733 351.984C151.419 351.984 152.923 352.347 154.245 353.072C155.589 353.797 156.624 354.832 157.349 356.176C158.096 357.499 158.469 359.024 158.469 360.752ZM153.829 359.472C153.808 358.32 153.392 357.403 152.581 356.72C151.771 356.016 150.779 355.664 149.605 355.664C148.496 355.664 147.557 356.005 146.789 356.688C146.043 357.349 145.584 358.277 145.413 359.472H153.829ZM177.076 370.224C175.519 370.224 174.111 369.957 172.852 369.424C171.615 368.891 170.634 368.123 169.908 367.12C169.183 366.117 168.81 364.933 168.788 363.568H173.588C173.652 364.485 173.972 365.211 174.548 365.744C175.146 366.277 175.956 366.544 176.98 366.544C178.026 366.544 178.847 366.299 179.444 365.808C180.042 365.296 180.34 364.635 180.34 363.824C180.34 363.163 180.138 362.619 179.732 362.192C179.327 361.765 178.815 361.435 178.196 361.2C177.599 360.944 176.767 360.667 175.7 360.368C174.25 359.941 173.066 359.525 172.148 359.12C171.252 358.693 170.474 358.064 169.812 357.232C169.172 356.379 168.852 355.248 168.852 353.84C168.852 352.517 169.183 351.365 169.844 350.384C170.506 349.403 171.434 348.656 172.628 348.144C173.823 347.611 175.188 347.344 176.724 347.344C179.028 347.344 180.895 347.909 182.324 349.04C183.775 350.149 184.575 351.707 184.724 353.712H179.796C179.754 352.944 179.423 352.315 178.804 351.824C178.207 351.312 177.407 351.056 176.404 351.056C175.53 351.056 174.826 351.28 174.292 351.728C173.78 352.176 173.524 352.827 173.524 353.68C173.524 354.277 173.716 354.779 174.1 355.184C174.506 355.568 174.996 355.888 175.572 356.144C176.17 356.379 177.002 356.656 178.068 356.976C179.519 357.403 180.703 357.829 181.62 358.256C182.538 358.683 183.327 359.323 183.988 360.176C184.65 361.029 184.98 362.149 184.98 363.536C184.98 364.731 184.671 365.84 184.052 366.864C183.434 367.888 182.527 368.709 181.332 369.328C180.138 369.925 178.719 370.224 177.076 370.224ZM205.6 352.272V370H201.088V367.76C200.512 368.528 199.755 369.136 198.816 369.584C197.899 370.011 196.896 370.224 195.808 370.224C194.422 370.224 193.195 369.936 192.128 369.36C191.062 368.763 190.219 367.899 189.6 366.768C189.003 365.616 188.704 364.251 188.704 362.672V352.272H193.184V362.032C193.184 363.44 193.536 364.528 194.24 365.296C194.944 366.043 195.904 366.416 197.12 366.416C198.358 366.416 199.328 366.043 200.032 365.296C200.736 364.528 201.088 363.44 201.088 362.032V352.272H205.6ZM214.501 354.832C215.077 354.021 215.866 353.349 216.869 352.816C217.893 352.261 219.055 351.984 220.357 351.984C221.871 351.984 223.237 352.357 224.453 353.104C225.69 353.851 226.661 354.917 227.365 356.304C228.09 357.669 228.453 359.259 228.453 361.072C228.453 362.885 228.09 364.496 227.365 365.904C226.661 367.291 225.69 368.368 224.453 369.136C223.237 369.904 221.871 370.288 220.357 370.288C219.055 370.288 217.903 370.021 216.901 369.488C215.919 368.955 215.119 368.283 214.501 367.472V378.448H210.021V352.272H214.501V354.832ZM223.877 361.072C223.877 360.005 223.653 359.088 223.205 358.32C222.778 357.531 222.202 356.933 221.477 356.528C220.773 356.123 220.005 355.92 219.173 355.92C218.362 355.92 217.594 356.133 216.869 356.56C216.165 356.965 215.589 357.563 215.141 358.352C214.714 359.141 214.501 360.069 214.501 361.136C214.501 362.203 214.714 363.131 215.141 363.92C215.589 364.709 216.165 365.317 216.869 365.744C217.594 366.149 218.362 366.352 219.173 366.352C220.005 366.352 220.773 366.139 221.477 365.712C222.202 365.285 222.778 364.677 223.205 363.888C223.653 363.099 223.877 362.16 223.877 361.072ZM236.188 354.832C236.764 354.021 237.553 353.349 238.556 352.816C239.58 352.261 240.743 351.984 242.044 351.984C243.559 351.984 244.924 352.357 246.14 353.104C247.377 353.851 248.348 354.917 249.052 356.304C249.777 357.669 250.14 359.259 250.14 361.072C250.14 362.885 249.777 364.496 249.052 365.904C248.348 367.291 247.377 368.368 246.14 369.136C244.924 369.904 243.559 370.288 242.044 370.288C240.743 370.288 239.591 370.021 238.588 369.488C237.607 368.955 236.807 368.283 236.188 367.472V378.448H231.708V352.272H236.188V354.832ZM245.564 361.072C245.564 360.005 245.34 359.088 244.892 358.32C244.465 357.531 243.889 356.933 243.164 356.528C242.46 356.123 241.692 355.92 240.86 355.92C240.049 355.92 239.281 356.133 238.556 356.56C237.852 356.965 237.276 357.563 236.828 358.352C236.401 359.141 236.188 360.069 236.188 361.136C236.188 362.203 236.401 363.131 236.828 363.92C237.276 364.709 237.852 365.317 238.556 365.744C239.281 366.149 240.049 366.352 240.86 366.352C241.692 366.352 242.46 366.139 243.164 365.712C243.889 365.285 244.465 364.677 244.892 363.888C245.34 363.099 245.564 362.16 245.564 361.072ZM261.268 370.288C259.561 370.288 258.025 369.915 256.66 369.168C255.294 368.4 254.217 367.323 253.428 365.936C252.66 364.549 252.276 362.949 252.276 361.136C252.276 359.323 252.67 357.723 253.46 356.336C254.27 354.949 255.369 353.883 256.756 353.136C258.142 352.368 259.689 351.984 261.396 351.984C263.102 351.984 264.649 352.368 266.036 353.136C267.422 353.883 268.51 354.949 269.3 356.336C270.11 357.723 270.516 359.323 270.516 361.136C270.516 362.949 270.1 364.549 269.267 365.936C268.457 367.323 267.348 368.4 265.94 369.168C264.553 369.915 262.996 370.288 261.268 370.288ZM261.268 366.384C262.078 366.384 262.836 366.192 263.54 365.808C264.265 365.403 264.841 364.805 265.268 364.016C265.694 363.227 265.908 362.267 265.908 361.136C265.908 359.451 265.46 358.16 264.564 357.264C263.689 356.347 262.612 355.888 261.332 355.888C260.052 355.888 258.974 356.347 258.1 357.264C257.246 358.16 256.82 359.451 256.82 361.136C256.82 362.821 257.236 364.123 258.068 365.04C258.921 365.936 259.988 366.384 261.268 366.384ZM278.282 355.024C278.858 354.085 279.604 353.349 280.522 352.816C281.46 352.283 282.527 352.016 283.722 352.016V356.72H282.538C281.13 356.72 280.063 357.051 279.338 357.712C278.634 358.373 278.282 359.525 278.282 361.168V370H273.802V352.272H278.282V355.024ZM291.955 355.952V364.528C291.955 365.125 292.094 365.563 292.371 365.84C292.67 366.096 293.161 366.224 293.843 366.224H295.923V370H293.107C289.331 370 287.443 368.165 287.443 364.496V355.952H285.331V352.272H287.443V347.888H291.955V352.272H295.923V355.952H291.955ZM320.467 365.744H311.571L310.099 370H305.395L313.427 347.632H318.643L326.675 370H321.939L320.467 365.744ZM319.251 362.16L316.019 352.816L312.786 362.16H319.251ZM334.157 346.32V370H329.677V346.32H334.157ZM343.063 346.32V370H338.583V346.32H343.063ZM359.594 354.864C360.17 354.011 360.96 353.317 361.962 352.784C362.986 352.251 364.149 351.984 365.45 351.984C366.965 351.984 368.33 352.357 369.546 353.104C370.784 353.851 371.754 354.917 372.458 356.304C373.184 357.669 373.546 359.259 373.546 361.072C373.546 362.885 373.184 364.496 372.458 365.904C371.754 367.291 370.784 368.368 369.546 369.136C368.33 369.904 366.965 370.288 365.45 370.288C364.128 370.288 362.965 370.032 361.962 369.52C360.981 368.987 360.192 368.304 359.594 367.472V370H355.114V346.32H359.594V354.864ZM368.97 361.072C368.97 360.005 368.746 359.088 368.298 358.32C367.872 357.531 367.296 356.933 366.57 356.528C365.866 356.123 365.098 355.92 364.266 355.92C363.456 355.92 362.688 356.133 361.962 356.56C361.258 356.965 360.682 357.563 360.234 358.352C359.808 359.141 359.594 360.069 359.594 361.136C359.594 362.203 359.808 363.131 360.234 363.92C360.682 364.709 361.258 365.317 361.962 365.744C362.688 366.149 363.456 366.352 364.266 366.352C365.098 366.352 365.866 366.139 366.57 365.712C367.296 365.285 367.872 364.677 368.298 363.888C368.746 363.099 368.97 362.16 368.97 361.072ZM375.65 361.072C375.65 359.28 376.002 357.691 376.706 356.304C377.431 354.917 378.402 353.851 379.618 353.104C380.855 352.357 382.231 351.984 383.746 351.984C385.068 351.984 386.22 352.251 387.202 352.784C388.204 353.317 389.004 353.989 389.602 354.8V352.272H394.114V370H389.602V367.408C389.026 368.24 388.226 368.933 387.202 369.488C386.199 370.021 385.036 370.288 383.714 370.288C382.22 370.288 380.855 369.904 379.618 369.136C378.402 368.368 377.431 367.291 376.706 365.904C376.002 364.496 375.65 362.885 375.65 361.072ZM389.602 361.136C389.602 360.048 389.388 359.12 388.962 358.352C388.535 357.563 387.959 356.965 387.234 356.56C386.508 356.133 385.73 355.92 384.898 355.92C384.066 355.92 383.298 356.123 382.594 356.528C381.89 356.933 381.314 357.531 380.866 358.32C380.439 359.088 380.226 360.005 380.226 361.072C380.226 362.139 380.439 363.077 380.866 363.888C381.314 364.677 381.89 365.285 382.594 365.712C383.319 366.139 384.087 366.352 384.898 366.352C385.73 366.352 386.508 366.149 387.234 365.744C387.959 365.317 388.535 364.72 388.962 363.952C389.388 363.163 389.602 362.224 389.602 361.136ZM408.313 352.016C410.425 352.016 412.132 352.688 413.433 354.032C414.735 355.355 415.385 357.211 415.385 359.6V370H410.905V360.208C410.905 358.8 410.553 357.723 409.849 356.976C409.145 356.208 408.185 355.824 406.969 355.824C405.732 355.824 404.751 356.208 404.025 356.976C403.321 357.723 402.969 358.8 402.969 360.208V370H398.489V352.272H402.969V354.48C403.567 353.712 404.324 353.115 405.241 352.688C406.18 352.24 407.204 352.016 408.313 352.016ZM430.142 370L424.126 362.448V370H419.646V346.32H424.126V359.792L430.078 352.272H435.902L428.094 361.168L435.966 370H430.142ZM445.117 370.288C443.666 370.288 442.365 370.032 441.213 369.52C440.061 368.987 439.144 368.272 438.461 367.376C437.8 366.48 437.437 365.488 437.373 364.4H441.885C441.97 365.083 442.301 365.648 442.877 366.096C443.474 366.544 444.21 366.768 445.085 366.768C445.938 366.768 446.6 366.597 447.069 366.256C447.56 365.915 447.805 365.477 447.805 364.944C447.805 364.368 447.506 363.941 446.909 363.664C446.333 363.365 445.405 363.045 444.125 362.704C442.802 362.384 441.714 362.053 440.861 361.712C440.029 361.371 439.304 360.848 438.685 360.144C438.088 359.44 437.789 358.491 437.789 357.296C437.789 356.315 438.066 355.419 438.621 354.608C439.197 353.797 440.008 353.157 441.053 352.688C442.12 352.219 443.368 351.984 444.797 351.984C446.909 351.984 448.594 352.517 449.853 353.584C451.112 354.629 451.805 356.048 451.933 357.84H447.645C447.581 357.136 447.282 356.581 446.749 356.176C446.237 355.749 445.544 355.536 444.669 355.536C443.858 355.536 443.229 355.685 442.781 355.984C442.354 356.283 442.141 356.699 442.141 357.232C442.141 357.829 442.44 358.288 443.037 358.608C443.634 358.907 444.562 359.216 445.821 359.536C447.101 359.856 448.157 360.187 448.989 360.528C449.821 360.869 450.536 361.403 451.133 362.128C451.752 362.832 452.072 363.771 452.093 364.944C452.093 365.968 451.805 366.885 451.229 367.696C450.674 368.507 449.864 369.147 448.797 369.616C447.752 370.064 446.525 370.288 445.117 370.288ZM465.668 350.16C464.878 350.16 464.217 349.915 463.684 349.424C463.172 348.912 462.916 348.283 462.916 347.536C462.916 346.789 463.172 346.171 463.684 345.68C464.217 345.168 464.878 344.912 465.668 344.912C466.457 344.912 467.108 345.168 467.62 345.68C468.153 346.171 468.42 346.789 468.42 347.536C468.42 348.283 468.153 348.912 467.62 349.424C467.108 349.915 466.457 350.16 465.668 350.16ZM467.876 352.272V370H463.396V352.272H467.876ZM482.126 352.016C484.238 352.016 485.944 352.688 487.246 354.032C488.547 355.355 489.198 357.211 489.198 359.6V370H484.718V360.208C484.718 358.8 484.366 357.723 483.662 356.976C482.958 356.208 481.998 355.824 480.782 355.824C479.544 355.824 478.563 356.208 477.838 356.976C477.134 357.723 476.782 358.8 476.782 360.208V370H472.302V352.272H476.782V354.48C477.379 353.712 478.136 353.115 479.054 352.688C479.992 352.24 481.016 352.016 482.126 352.016ZM506.299 355.952V364.528C506.299 365.125 506.438 365.563 506.715 365.84C507.014 366.096 507.504 366.224 508.187 366.224H510.267V370H507.451C503.675 370 501.787 368.165 501.787 364.496V355.952H499.675V352.272H501.787V347.888H506.299V352.272H510.267V355.952H506.299ZM523.473 352.016C524.817 352.016 526.012 352.315 527.057 352.912C528.103 353.488 528.913 354.352 529.489 355.504C530.087 356.635 530.385 358 530.385 359.6V370H525.905V360.208C525.905 358.8 525.553 357.723 524.849 356.976C524.145 356.208 523.185 355.824 521.969 355.824C520.732 355.824 519.751 356.208 519.025 356.976C518.321 357.723 517.969 358.8 517.969 360.208V370H513.489V346.32H517.969V354.48C518.545 353.712 519.313 353.115 520.273 352.688C521.233 352.24 522.3 352.016 523.473 352.016ZM551.126 360.752C551.126 361.392 551.083 361.968 550.998 362.48H538.038C538.144 363.76 538.592 364.763 539.382 365.488C540.171 366.213 541.142 366.576 542.294 366.576C543.958 366.576 545.142 365.861 545.846 364.432H550.678C550.166 366.139 549.184 367.547 547.734 368.656C546.283 369.744 544.502 370.288 542.39 370.288C540.683 370.288 539.147 369.915 537.782 369.168C536.438 368.4 535.382 367.323 534.614 365.936C533.867 364.549 533.493 362.949 533.493 361.136C533.493 359.301 533.867 357.691 534.614 356.304C535.36 354.917 536.406 353.851 537.75 353.104C539.094 352.357 540.64 351.984 542.39 351.984C544.075 351.984 545.579 352.347 546.902 353.072C548.246 353.797 549.28 354.832 550.006 356.176C550.752 357.499 551.126 359.024 551.126 360.752ZM546.486 359.472C546.464 358.32 546.048 357.403 545.238 356.72C544.427 356.016 543.435 355.664 542.262 355.664C541.152 355.664 540.214 356.005 539.446 356.688C538.699 357.349 538.24 358.277 538.07 359.472H546.486ZM133.784 400.272L128.6 418H123.768L120.536 405.616L117.304 418H112.44L107.224 400.272H111.768L114.904 413.776L118.296 400.272H123.032L126.36 413.744L129.496 400.272H133.784ZM144.08 418.288C142.373 418.288 140.837 417.915 139.472 417.168C138.107 416.4 137.029 415.323 136.24 413.936C135.472 412.549 135.088 410.949 135.088 409.136C135.088 407.323 135.483 405.723 136.272 404.336C137.083 402.949 138.181 401.883 139.568 401.136C140.955 400.368 142.501 399.984 144.208 399.984C145.915 399.984 147.461 400.368 148.848 401.136C150.235 401.883 151.323 402.949 152.112 404.336C152.923 405.723 153.328 407.323 153.328 409.136C153.328 410.949 152.912 412.549 152.08 413.936C151.269 415.323 150.16 416.4 148.752 417.168C147.365 417.915 145.808 418.288 144.08 418.288ZM144.08 414.384C144.891 414.384 145.648 414.192 146.352 413.808C147.077 413.403 147.653 412.805 148.08 412.016C148.507 411.227 148.72 410.267 148.72 409.136C148.72 407.451 148.272 406.16 147.376 405.264C146.501 404.347 145.424 403.888 144.144 403.888C142.864 403.888 141.787 404.347 140.912 405.264C140.059 406.16 139.632 407.451 139.632 409.136C139.632 410.821 140.048 412.123 140.88 413.04C141.733 413.936 142.8 414.384 144.08 414.384ZM161.094 403.024C161.67 402.085 162.417 401.349 163.334 400.816C164.273 400.283 165.34 400.016 166.534 400.016V404.72H165.35C163.942 404.72 162.876 405.051 162.15 405.712C161.446 406.373 161.094 407.525 161.094 409.168V418H156.614V400.272H161.094V403.024ZM174.032 394.32V418H169.552V394.32H174.032ZM177.306 409.072C177.306 407.28 177.658 405.691 178.362 404.304C179.087 402.917 180.069 401.851 181.306 401.104C182.543 400.357 183.919 399.984 185.434 399.984C186.586 399.984 187.685 400.24 188.73 400.752C189.775 401.243 190.607 401.904 191.226 402.736V394.32H195.77V418H191.226V415.376C190.671 416.251 189.893 416.955 188.89 417.488C187.887 418.021 186.725 418.288 185.402 418.288C183.909 418.288 182.543 417.904 181.306 417.136C180.069 416.368 179.087 415.291 178.362 413.904C177.658 412.496 177.306 410.885 177.306 409.072ZM191.258 409.136C191.258 408.048 191.045 407.12 190.618 406.352C190.191 405.563 189.615 404.965 188.89 404.56C188.165 404.133 187.386 403.92 186.554 403.92C185.722 403.92 184.954 404.123 184.25 404.528C183.546 404.933 182.97 405.531 182.522 406.32C182.095 407.088 181.882 408.005 181.882 409.072C181.882 410.139 182.095 411.077 182.522 411.888C182.97 412.677 183.546 413.285 184.25 413.712C184.975 414.139 185.743 414.352 186.554 414.352C187.386 414.352 188.165 414.149 188.89 413.744C189.615 413.317 190.191 412.72 190.618 411.952C191.045 411.163 191.258 410.224 191.258 409.136ZM202.13 418.224C201.319 418.224 200.647 417.979 200.114 417.488C199.602 416.976 199.346 416.347 199.346 415.6C199.346 414.853 199.602 414.235 200.114 413.744C200.647 413.232 201.319 412.976 202.13 412.976C202.919 412.976 203.57 413.232 204.082 413.744C204.594 414.235 204.85 414.853 204.85 415.6C204.85 416.347 204.594 416.976 204.082 417.488C203.57 417.979 202.919 418.224 202.13 418.224ZM202.13 404.976C201.319 404.976 200.647 404.731 200.114 404.24C199.602 403.728 199.346 403.099 199.346 402.352C199.346 401.605 199.602 400.987 200.114 400.496C200.647 399.984 201.319 399.728 202.13 399.728C202.919 399.728 203.57 399.984 204.082 400.496C204.594 400.987 204.85 401.605 204.85 402.352C204.85 403.099 204.594 403.728 204.082 404.24C203.57 404.731 202.919 404.976 202.13 404.976Z" fill="white" fill-opacity="0.76"/>
<defs>
<linearGradient id="paint0_linear_1_2" x1="4.99998" y1="1.30839e-05" x2="680" y2="861" gradientUnits="userSpaceOnUse">
<stop stop-color="#7DE44C" stop-opacity="0.99"/>
<stop offset="1" stop-color="#64B3FC" stop-opacity="0.66"/>
</linearGradient>
</defs>
</svg>
